<?xml version="1.0" encoding="utf-8"?>
<!-- Generator: Adobe Illustrator 23.0.1, SVG Export Plug-In . SVG Version: 6.00 Build 0)  -->
<svg version="1.1" id="Layer_1" xmlns="http://www.w3.org/2000/svg" xmlns:xlink="http://www.w3.org/1999/xlink" x="0px" y="0px"
	 viewBox="0 0 800 800" style="enable-background:new 0 0 800 800;" xml:space="preserve">
<style type="text/css">
	.st0{fill:#FFFFFF; fill-opacity:0.0}
</style>
<g>
	<path class="st0" d="M800,800c-266.7,0-533.3,0-800,0C0,533.3,0,266.7,0,0c266.7,0,533.3,0,800,0C800,266.7,800,533.3,800,800z
		 M760.6,566.8c-0.6-0.9-1-1.4-1.3-1.9c-6.3-8.4-12.7-16.9-19-25.3c-31.6-42-63.1-84.1-94.7-126.1c-30-39.9-59.9-79.8-89.9-119.7
		c-24.9-33.1-49.8-66.3-74.6-99.4c-1.1-1.5-2.2-2.1-4-2c-2.3,0.2-4.6,0-6.8,0c-40-0.1-80.1-0.3-120.1-0.4
		c-55.8-0.2-111.6-0.4-167.4-0.5c-1.4,0-2.2-0.4-3-1.6c-15.4-20.6-30.8-41.1-46.3-61.7c-2.2-2.9-4.4-5.9-6.9-9.2
		c126.2,0.4,251.9,0.8,377.7,1.3c0-12.4,0-24.5,0-36.6c-150.4-0.5-300.7-1-451.3-1.5c27.4,36.5,54.5,72.6,81.8,108.9
		c-32.6,0-64.8,0-97.3,0c0.6,0.9,1.1,1.6,1.7,2.3c14.5,19.2,28.9,38.5,43.4,57.7c32.4,43.2,64.8,86.4,97.3,129.6
		c20.5,27.4,41.1,54.7,61.7,82.1c22.3,29.7,44.6,59.4,67,89.1c0.5,0.6,1.5,1.2,2.3,1.2c19.9,0.7,39.8,1.3,59.7,1.9
		c12,0.4,23.9,0.8,35.9,1c1.9,0,3,0.8,4.1,2.3c15.6,20.8,31.2,41.6,46.9,62.5c21.8,29,43.6,58.1,65.4,87.1c1.9,2.5,3.8,5,5.8,7.6
		c9.9-7.4,19.6-14.6,29.4-21.9c-34-45.2-67.9-90.4-102.1-135.9C557.6,560.6,658.9,563.7,760.6,566.8z"/>
	<path d="M760.6,566.8c-101.7-3.1-203-6.2-304.7-9.3c34.2,45.5,68.1,90.7,102.1,135.9c-9.8,7.3-19.5,14.6-29.4,21.9
		c-1.9-2.5-3.9-5.1-5.8-7.6c-21.8-29-43.6-58.1-65.4-87.1c-15.6-20.8-31.3-41.6-46.9-62.5c-1.1-1.5-2.2-2.2-4.1-2.3
		c-12-0.3-23.9-0.7-35.9-1c-19.9-0.6-39.8-1.2-59.7-1.9c-0.8,0-1.9-0.6-2.3-1.2c-22.4-29.7-44.7-59.4-67-89.1
		c-20.6-27.4-41.1-54.7-61.7-82.1c-32.4-43.2-64.8-86.4-97.3-129.6c-14.5-19.3-28.9-38.5-43.4-57.7c-0.5-0.7-1-1.4-1.7-2.3
		c32.5,0,64.7,0,97.3,0C107.5,154.8,80.4,118.7,53,82.2c150.6,0.5,300.9,1,451.3,1.5c0,12.2,0,24.2,0,36.6
		c-125.7-0.4-251.5-0.8-377.7-1.3c2.5,3.3,4.7,6.3,6.9,9.2c15.4,20.5,30.9,41.1,46.3,61.7c0.8,1.1,1.6,1.5,3,1.6
		c55.8,0.1,111.6,0.3,167.4,0.5c40,0.1,80.1,0.3,120.1,0.4c2.3,0,4.6,0.2,6.8,0c1.8-0.1,2.9,0.5,4,2c24.8,33.2,49.7,66.3,74.6,99.4
		c30,39.9,59.9,79.8,89.9,119.7c31.6,42,63.1,84.1,94.7,126.1c6.3,8.4,12.7,16.9,19,25.3C759.6,565.4,760,565.9,760.6,566.8z
		 M685.3,527.6c-0.4-0.6-0.7-0.9-0.9-1.3c-8.5-11.3-17-22.7-25.5-34c-31.2-41.5-62.3-83-93.5-124.6
		c-34.4-45.8-68.8-91.7-103.2-137.5c-0.7-0.9-1.4-1.3-2.6-1.3c-42.1-0.1-84.2-0.2-126.4-0.4c-37.8-0.1-75.5-0.3-113.3-0.4
		c-3.7,0-7.4,0-11.3,0c0.5,0.7,0.8,1.1,1.1,1.5c6.4,8.5,12.8,17.1,19.2,25.6c22.9,30.5,45.8,61.1,68.8,91.6
		c25.9,34.4,51.7,68.9,77.6,103.3c17.2,22.8,34.3,45.7,51.4,68.5c0.7,1,1.5,1.4,2.7,1.4c4.8,0.1,9.6,0.3,14.4,0.5
		c21.8,0.7,43.6,1.3,65.4,2c34.1,1,68.2,2.1,102.3,3.1c21.4,0.6,42.8,1.3,64.2,2C678.8,527.7,681.9,527.6,685.3,527.6z M380.7,518.6
		c-0.7-1-1.3-1.7-1.8-2.5c-5.7-7.6-11.5-15.3-17.3-22.9c-37.3-49.6-74.5-99.3-111.8-148.9c-28.7-38.2-57.4-76.4-86-114.6
		c-1-1.3-1.9-1.8-3.5-1.8c-15.9,0-31.9-0.1-47.8-0.1c-0.4,0-0.8,0.1-1.4,0.2c0.5,0.7,0.9,1.3,1.2,1.8c6.1,8.1,12.2,16.2,18.3,24.4
		c29.4,39.2,58.8,78.4,88.2,117.5c25,33.2,50,66.5,74.9,99.7c11.1,14.8,22.2,29.6,33.3,44.3c0.5,0.7,1.5,1.4,2.3,1.4
		C346.3,517.6,363.3,518.1,380.7,518.6z"/>
	<path class="st0" d="M685.3,527.6c-3.4,0-6.5,0.1-9.6,0c-21.4-0.6-42.8-1.3-64.2-2c-34.1-1-68.2-2.1-102.3-3.1
		c-21.8-0.7-43.6-1.3-65.4-2c-4.8-0.1-9.6-0.4-14.4-0.5c-1.2,0-2-0.5-2.7-1.4c-17.1-22.9-34.3-45.7-51.4-68.5
		c-25.9-34.4-51.7-68.9-77.6-103.3c-22.9-30.5-45.9-61.1-68.8-91.6c-6.4-8.5-12.8-17.1-19.2-25.6c-0.3-0.4-0.6-0.8-1.1-1.5
		c4,0,7.7,0,11.3,0c37.8,0.1,75.5,0.3,113.3,0.4c42.1,0.1,84.2,0.3,126.4,0.4c1.2,0,1.9,0.4,2.6,1.3
		c34.4,45.9,68.8,91.7,103.2,137.5c31.2,41.5,62.3,83,93.5,124.6c8.5,11.3,17,22.7,25.5,34C684.7,526.7,684.9,527.1,685.3,527.6z"/>
	<path class="st0" d="M380.7,518.6c-17.4-0.5-34.4-1-51.4-1.6c-0.8,0-1.7-0.8-2.3-1.4c-11.1-14.7-22.2-29.5-33.3-44.3
		c-25-33.2-50-66.5-74.9-99.7c-29.4-39.2-58.8-78.4-88.2-117.5c-6.1-8.1-12.2-16.2-18.3-24.4c-0.4-0.5-0.7-1-1.2-1.8
		c0.6-0.1,1-0.2,1.4-0.2c15.9,0.1,31.9,0.1,47.8,0.1c1.6,0,2.6,0.5,3.5,1.8c28.6,38.2,57.3,76.4,86,114.6
		c37.3,49.6,74.5,99.3,111.8,148.9c5.7,7.6,11.5,15.3,17.3,22.9C379.4,516.9,379.9,517.6,380.7,518.6z"/>
</g>
</svg>
